<?xml version="1.0" standalone="no"?>
<!DOCTYPE svg PUBLIC "-//W3C//DTD SVG 20010904//EN"
 "http://www.w3.org/TR/2001/REC-SVG-20010904/DTD/svg10.dtd">
<svg version="1.0" xmlns="http://www.w3.org/2000/svg"
 width="72.000000pt" height="72.000000pt" viewBox="0 0 72.000000 72.000000"
 preserveAspectRatio="xMidYMid meet">
<metadata>
Created by potrace 1.16, written by Peter Selinger 2001-2019
</metadata>
<g transform="translate(0.000000,72.000000) scale(0.100000,-0.100000)"
fill="#000000" stroke="none">
<path d="M333 649 c-280 -55 -323 -345 -66 -450 42 -18 44 -19 14 -14 -57 9
-141 53 -178 92 -20 21 -30 28 -24 16 18 -36 91 -91 144 -109 38 -13 73 -15
143 -12 79 4 104 10 158 37 122 60 181 159 152 255 -29 95 -98 153 -216 180
-72 17 -68 17 -127 5z m135 -60 c79 -38 118 -127 86 -194 -14 -31 -15 -38 -3
-45 7 -5 10 -13 5 -17 -9 -9 -46 33 -46 53 0 8 6 14 14 14 42 0 27 89 -24 140
-87 87 -238 73 -308 -30 -19 -28 -23 -44 -19 -82 2 -27 1 -48 -3 -48 -21 0
-27 87 -9 123 54 105 190 142 307 86z m-35 -135 c31 -25 57 -49 57 -53 0 -5
-12 -20 -26 -35 -20 -19 -22 -26 -11 -26 8 0 18 -6 21 -12 3 -7 4 -4 3 7 -1
14 4 20 17 20 54 0 -10 -60 -74 -70 l-35 -5 39 18 c34 16 36 19 22 31 -13 11
-25 5 -84 -48 -38 -34 -76 -61 -86 -61 -22 0 -126 79 -126 95 0 18 190 185
210 185 8 0 41 -21 73 -46z"/>
<path d="M262 407 l-83 -71 23 -18 c13 -10 40 -30 60 -44 43 -30 42 -31 137
59 l60 56 -57 45 -58 44 -82 -71z"/>
<path d="M70 94 l0 -64 290 0 290 0 0 64 0 64 -290 0 -290 -1 0 -63z m560 1
l0 -45 -270 0 -270 0 0 45 0 45 270 0 270 0 0 -45z"/>
</g>
</svg>
